<svg width="90" height="118" viewBox="0 0 90 118" fill="none" xmlns="http://www.w3.org/2000/svg">
<g opacity="0.4">
<path d="M9.99999 30C8.65858 36.7576 7.53707 42.7903 6.17367 48.951C5.90978 50.1874 5.14011 51.9354 3.62278 51.9994C1.77559 51.9994 1.26981 50.1448 0.65408 48.8018C-1.76486 43.6643 2.78715 33.8371 9.99999 30Z" fill="#BCA28E"/>
<path d="M88.8857 70.8132C85.1599 65.1618 87.1 54.8712 93.4272 50C92.1044 57.5703 96.2491 64.7611 92.1044 71.6566C90.6935 72.6267 89.9219 71.2771 88.8857 70.8132Z" fill="#DC8C73"/>
<path d="M16.8538 55C18.3821 59.7605 18.3821 64.8644 16.8538 69.6249C16.2553 71.4426 14.5454 73.4065 12.579 72.926C11.6033 72.5138 10.8196 71.7611 10.381 70.8147C9.94233 69.8683 9.88013 68.7961 10.2065 67.8072C11.2066 63.0325 13.5026 58.6088 16.8538 55Z" fill="#ECC889"/>
<path d="M97 94.1896C96.0958 97.5136 97.4521 101.455 94.395 104.332C93.5123 105.163 92.6297 106.292 91.1873 105.93C89.7449 105.568 89.2712 104.119 89.0344 102.713C88.5823 100.092 92.6943 90.8444 94.9117 89.3955C96.225 88.5645 96.6986 89.1185 96.8278 90.3543C96.9569 91.5902 96.9354 92.826 97 94.1896Z" fill="#BCA28E"/>
<path d="M60 62.3778C60.438 56.8001 62.5202 51.4622 65.9986 47C69.2184 52.1331 68.4025 60.7096 64.6313 64.538C61.8746 66.2276 61.6981 62.7628 60 62.3778Z" fill="#DC8C73"/>
<path d="M74.6993 102C76.1695 105.366 75.969 109.086 77.5062 112.39C78.3081 114.198 78.4195 117.211 75.6126 117.876C72.8057 118.541 71.1572 116.421 70.3329 114.052C69.7911 111.863 69.9125 109.577 70.6836 107.449C71.4546 105.32 72.845 103.434 74.6993 102Z" fill="#BCA28E"/>
<path d="M12.474 6.83136C12.6607 9.87858 12.6607 12.9347 12.474 15.9819C12.1117 18.525 10.8329 21.6114 7.95558 20.8941C7.35256 20.6583 6.80493 20.2958 6.34827 19.8301C5.89162 19.3644 5.53617 18.8059 5.30501 18.1909C5.07385 17.5759 4.97215 16.9182 5.00653 16.2606C5.0409 15.6029 5.21057 14.96 5.50453 14.3735C6.34775 11.3711 7.89908 8.62494 10.023 6.37492C10.705 5.76633 11.3018 4.57089 12.4527 5.15775C13.6036 5.7446 12.6019 7.04871 12.474 6.83136Z" fill="#DC8C73"/>
<path d="M23.3035 19C26.3911 19 25.0531 21.8742 26 23.2703C25.213 24.9771 24.8934 26.8614 25.0737 28.7314C25.0931 29.8296 24.7683 30.9065 24.1447 31.8118C23.5211 32.7172 22.6298 33.4059 21.595 33.7818C21.1743 34.0089 20.6806 34.0608 20.2217 33.9262C19.7628 33.7915 19.3759 33.4813 19.1455 33.0633C18.4805 32.2132 18.0859 31.184 18.0125 30.1082C17.9391 29.0324 18.1903 27.9594 18.7338 27.0273C20.257 24.2558 21.7803 21.6279 23.3035 19Z" fill="#DC8C73"/>
<path d="M36 52.9589C35.3429 54.9774 35.5619 57.4518 33.7102 57.9076C31.5398 58.4502 30.1859 56.4968 29.3297 54.5433C28.2346 51.9604 30.0465 45.3621 32.1372 43.6908C33.1527 42.866 33.969 42.4753 34.3274 44.2986C34.3948 44.5688 34.4415 44.8447 34.4668 45.1233C34.3753 47.8332 34.9021 50.5255 36 52.9589Z" fill="#DC8C73"/>
<path d="M74.1728 69.9969C75.6949 68.6447 77.0168 68.4575 77.8379 70.7667C77.8379 73.1799 78.0182 75.614 77.9982 78.0272C78.0241 78.9883 77.7754 79.9359 77.2836 80.7504C76.7917 81.5649 76.0786 82.2099 75.2343 82.604C74.7401 82.9447 74.1376 83.0722 73.5545 82.9596C72.9713 82.847 72.4532 82.5031 72.1099 82.0007C71.5275 81.2639 71.1567 80.3716 71.0398 79.4261C70.9229 78.4805 71.0647 77.5199 71.449 76.6541C72.4504 74.4906 73.2715 72.2229 74.1728 69.9969Z" fill="#DC8C73"/>
<path d="M60 90.5764C58.7796 92.1547 59.8032 95.122 57.0277 94.9957C56.0391 94.9995 55.0852 94.6055 54.3559 93.892C53.6265 93.1785 53.1749 92.1977 53.0909 91.1446C52.8892 89.5089 53.0242 87.8459 53.4866 86.2719C53.949 84.6979 54.7277 83.2509 55.7679 82.0323C56.2797 81.4431 56.9293 80.7907 57.7363 81.0643C58.5434 81.3378 58.4646 82.4111 58.4646 83.1687C58.4194 85.7332 58.9457 88.2724 60 90.5764Z" fill="#DC8C73"/>
<path d="M43 70.7945C42.8554 72.8785 42.5923 74.9523 42.2119 77.0059C41.5941 79.585 39.5705 81.6483 37.1635 80.8101C34.7565 79.9719 34.5861 76.9414 35.5446 74.5987C36.4272 72.7003 37.5359 70.9176 38.8463 69.29C39.6131 68.2154 40.4439 66.4959 41.9562 67.1407C43.4686 67.7855 42.7231 69.4834 43 70.7945Z" fill="#BCA28E"/>
<path d="M19.003 92.8755C18.9622 91.3621 19.3362 89.8649 20.0877 88.533C20.8686 87.0371 22.1051 85.645 24.0575 86.0813C26.0099 86.5176 24.4913 88.159 24.8384 89.1771C25.4233 90.668 25.8025 92.2256 25.9665 93.8105C25.9665 95.4727 26.4437 97.675 23.7972 97.9659C22.7216 98.1018 21.6337 97.8238 20.7717 97.1929C19.9097 96.562 19.3439 95.6297 19.1982 94.6C19.0705 94.0333 19.0051 93.4553 19.003 92.8755Z" fill="#DC8C73"/>
<path d="M82.6503 32C85.183 37.297 83.9699 47.1342 80.5221 51.0259C79.3515 52.388 78.7982 52.2583 77.7127 51.0259C77.0556 50.3091 76.5667 49.4505 76.2829 48.5144C75.999 47.5782 75.9276 46.589 76.074 45.6208C77.3057 40.6638 79.5459 36.0239 82.6503 32Z" fill="#BCA28E"/>
<path d="M53.7134 27C54.1675 29.6232 54.0811 32.3153 53.4599 34.902C52.8387 37.4887 51.6965 39.9122 50.1073 42.0157C48.9817 43.646 46.5428 44.6971 45.042 43.453C44.3693 42.6385 44 41.6045 44 40.5356C44 39.4668 44.3693 38.4327 45.042 37.6183C47.4185 33.6661 50.3394 30.0894 53.7134 27Z" fill="#BCA28E"/>
<path d="M44 14.6194C43.844 16.8715 43.541 19.1108 43.0932 21.3225C43.0158 21.8816 42.8296 22.4197 42.5454 22.9056C42.2612 23.3914 41.8846 23.8154 41.4374 24.1529C40.9903 24.4904 40.4814 24.7348 39.9403 24.8719C39.3992 25.0089 38.8366 25.036 38.2851 24.9515C35.9654 24.3111 35.5436 21.4719 36.4293 19.2518C37.3875 17.0967 38.5906 15.0621 40.0143 13.1891C40.6891 12.2285 41.5327 10.6915 42.8191 11.0544C44.4639 11.5454 43.8102 13.4026 44 14.6194Z" fill="#BCA28E"/>
<path d="M75 13.3673C74.8139 15.4875 74.4855 17.5911 74.0174 19.6624C73.9127 20.2203 73.7001 20.7494 73.3927 21.2169C73.0853 21.6844 72.6897 22.0802 72.2306 22.3795C71.7715 22.6789 71.2588 22.8754 70.7244 22.9569C70.19 23.0384 69.6455 23.003 69.1246 22.8531C68.6337 22.6092 68.1996 22.2547 67.8531 21.8147C67.5066 21.3746 67.2561 20.8598 67.1194 20.3066C66.9827 19.7534 66.9631 19.1753 67.062 18.6132C67.1608 18.0511 67.3758 17.5188 67.6916 17.0538C68.7853 15.1336 70.0611 13.335 71.4993 11.6857C72.1544 10.8665 72.9733 9.65922 74.0992 10.0904C75.5732 10.7372 74.7134 12.2894 75 13.3673Z" fill="#ECC889"/>
<path d="M64.8606 5.35132C65.1918 8.08539 64.9848 10.5088 61.9629 11.7515C61.4839 12.0011 60.9298 12.0651 60.4066 11.9313C59.8834 11.7976 59.4279 11.4754 59.1272 11.0266C57.0574 8.49964 58.1958 6.36624 59.6861 4.08785C60.7417 2.43084 61.4247 -0.406794 63.4738 0.0488842C65.8541 0.608125 64.695 3.46647 64.8606 5.35132Z" fill="#DC8C73"/>
</g>
</svg>
