<svg width="585" height="791" viewBox="0 0 585 791" fill="none" xmlns="http://www.w3.org/2000/svg">
<g opacity="0.2">
<path d="M190.15 945.215C218.604 872.582 303.304 729.331 414.464 737.391C553.413 747.467 663.137 684.387 655.721 534.929C648.304 385.471 659.229 222.644 763.8 213.595C868.371 204.546 949.186 249.909 1013.58 247.691C1077.97 245.472 1111.75 191.757 1130.66 97.2631C1149.58 2.76929 1187.6 -80.7743 1323.93 -67.1151C1403.73 -59.1193 1538.06 -164.776 1561.4 -183.654" stroke="white" stroke-width="7"/>
<path d="M130.901 886.574C159.355 813.941 231.886 666.757 366.414 680.907C518.849 696.939 623.214 646.271 626.78 485.509C629.641 356.554 661.196 193.901 765.767 184.853C870.338 175.804 932.97 232.877 995.679 243.095C1062.84 254.038 1112.12 200.982 1131.03 106.488C1149.95 11.9946 1195.58 -91.3176 1312.84 -63.2883C1406.61 -40.8724 1556.95 -131.671 1580.3 -150.549" stroke="white" stroke-width="7"/>
<path d="M166.38 918.746C194.834 846.113 254.521 716.491 391.044 712.331C570.991 706.847 642.981 652.438 643.718 491.835C644.323 360.088 656.217 205.278 760.788 196.23C865.359 187.181 976.317 256.216 1039.32 238.599C1083.66 226.201 1096.11 180.207 1123.42 112.655C1160 22.1663 1188.68 -77.9884 1314.77 -50.1823C1414.51 -28.1888 1572 -121.837 1595.34 -140.715" stroke="white" stroke-width="7"/>
<path d="M90.4008 852.084C127.476 781.992 205.36 645.446 325.814 649.216C504.966 654.823 583.536 657.086 606.439 454.511C622.093 316.046 640.284 169.018 744.855 159.969C849.426 150.92 982.002 270.997 1054.3 219.123C1092.15 191.966 1100.23 157.061 1128.74 90.0106C1166.97 0.0866263 1177.36 -68.1034 1333.71 -61.8403C1406.02 -58.9438 1516.4 -137.001 1566.31 -170.768" stroke="white" stroke-width="7"/>
</g>
</svg>
