<svg width="624" height="470" viewBox="0 0 624 470" fill="none" xmlns="http://www.w3.org/2000/svg">
<path fill-rule="evenodd" clip-rule="evenodd" d="M47.0425 259.861C47.4785 260.484 47.9169 261.105 48.3578 261.726C48.7993 262.348 49.2434 262.969 49.6899 263.59L53.911 263.198L51.2973 259.466C47.8142 254.493 44.4901 249.471 41.3339 244.402C38.1777 239.334 35.2378 234.297 32.5111 229.298L30.465 225.547L25.946 225.46C26.2747 226.085 26.6067 226.71 26.942 227.335C27.2767 227.96 27.6148 228.585 27.9561 229.211C30.7266 234.291 33.7136 239.407 36.9198 244.556C40.1261 249.705 43.5034 254.808 47.0425 259.861ZM71.335 285.536L67.4874 286.406C68.0014 287.017 68.5177 287.627 69.0364 288.236C69.5556 288.845 70.0772 289.454 70.601 290.062C79.2475 300.093 88.5131 309.864 98.316 319.331C98.9206 319.915 99.5273 320.498 100.136 321.08C100.745 321.662 101.357 322.243 101.97 322.823L105.375 321.486L101.749 317.984C92.1039 308.669 82.9875 299.055 74.4798 289.185L71.335 285.536ZM128.594 342.057L125.689 343.838C126.356 344.392 127.024 344.945 127.694 345.496C128.364 346.048 129.037 346.599 129.71 347.148C140.774 356.161 152.314 364.809 164.243 373.045C164.975 373.551 165.709 374.055 166.444 374.557C167.179 375.06 167.916 375.561 168.654 376.06L171.011 373.868L166.618 370.836C154.88 362.731 143.525 354.221 132.638 345.353L128.594 342.057ZM198.43 391.285L196.66 393.849C197.432 394.31 198.206 394.768 198.981 395.225C199.756 395.682 200.532 396.137 201.309 396.59C214.021 404.004 227.038 410.952 240.27 417.388C241.079 417.781 241.889 418.173 242.7 418.563C243.511 418.952 244.322 419.34 245.135 419.726L246.29 416.833L241.434 414.472C228.413 408.139 215.603 401.301 203.094 394.005L198.43 391.285ZM276.026 429.925L275.507 433.098C276.334 433.433 277.16 433.767 277.987 434.098C278.814 434.429 279.642 434.758 280.469 435.085C293.959 440.415 307.573 445.191 321.223 449.366C322.055 449.62 322.887 449.872 323.719 450.122C324.55 450.372 325.382 450.62 326.214 450.865L326.083 447.465L321.091 445.938C307.661 441.831 294.266 437.131 280.992 431.887L276.026 429.925ZM356.113 455.301L356.894 458.871C357.718 459.058 358.541 459.242 359.364 459.424C360.187 459.606 361.009 459.785 361.832 459.962C375.163 462.834 388.446 465.088 401.599 466.678C402.396 466.774 403.192 466.868 403.988 466.96C404.783 467.051 405.577 467.14 406.371 467.227L404.952 463.549L400.168 462.971C387.228 461.406 374.16 459.189 361.044 456.364L356.113 455.301ZM433.216 465.564L435.244 469.285C436.008 469.31 436.771 469.332 437.534 469.352C438.295 469.372 439.056 469.389 439.816 469.404C445.985 469.524 452.105 469.48 458.167 469.269C464.228 469.057 470.141 468.68 475.901 468.144C476.61 468.078 477.317 468.009 478.022 467.938C478.477 467.892 478.93 467.846 479.382 467.798C479.633 467.771 479.883 467.745 480.134 467.718L477.539 464.016L473.285 464.412C467.617 464.94 461.798 465.311 455.832 465.52C449.865 465.728 443.842 465.771 437.771 465.652L433.216 465.564ZM502.144 460.155L505.268 463.773C505.923 463.636 506.575 463.497 507.225 463.355C507.875 463.213 508.523 463.068 509.169 462.922C519.823 460.5 529.794 457.435 539.057 453.774C539.628 453.548 540.197 453.32 540.763 453.089C541.329 452.859 541.893 452.626 542.454 452.391L538.851 448.92L535.425 450.274C526.311 453.876 516.501 456.891 506.019 459.274L502.144 460.155ZM558.05 439.364L562.069 442.629C562.567 442.337 563.061 442.043 563.553 441.747C563.862 441.561 564.17 441.374 564.477 441.187C564.658 441.076 564.84 440.964 565.02 440.852C573.001 435.922 580.214 430.419 586.633 424.394C587.027 424.024 587.417 423.653 587.805 423.279C588.193 422.905 588.578 422.529 588.96 422.152L584.597 419.149L582.234 421.367C575.918 427.296 568.82 432.711 560.968 437.561L558.05 439.364ZM597.109 404.582L601.741 407.273C601.902 407.05 602.063 406.827 602.222 406.603C602.367 406.4 602.511 406.196 602.654 405.993C602.955 405.564 603.254 405.134 603.549 404.702C608.373 397.636 612.366 390.093 615.5 382.126C615.611 381.844 615.721 381.561 615.83 381.278C615.909 381.072 615.987 380.866 616.065 380.66C616.25 380.17 616.432 379.678 616.611 379.184L611.79 376.85L610.641 379.773C607.557 387.614 603.627 395.036 598.88 401.989L597.109 404.582ZM616.813 358.301L621.741 360.238C621.839 359.71 621.933 359.18 622.025 358.648C622.116 358.117 622.204 357.584 622.289 357.05C623.67 348.349 624.178 339.28 623.784 329.894C623.76 329.323 623.733 328.75 623.702 328.175C623.672 327.602 623.638 327.027 623.6 326.451L618.649 324.944L618.793 328.376C619.18 337.611 618.681 346.535 617.321 355.097L616.813 358.301ZM615.804 303.661L620.694 304.708C620.574 304.111 620.451 303.513 620.325 302.914C620.262 302.613 620.197 302.312 620.132 302.011C620.068 301.713 620.003 301.415 619.936 301.116C617.783 291.382 614.743 281.393 610.794 271.198C610.555 270.58 610.312 269.961 610.066 269.342C609.82 268.724 609.571 268.105 609.319 267.485L604.575 266.915L606.011 270.623C609.897 280.655 612.888 290.483 615.007 300.06L615.804 303.661ZM191.278 4.31955L189.25 0.59807C188.486 0.573351 187.722 0.551088 186.96 0.531313C186.198 0.511568 185.438 0.494295 184.678 0.479509C178.509 0.359423 172.389 0.402773 166.327 0.614458C160.265 0.826143 154.353 1.20297 148.593 1.73963C147.883 1.80573 147.176 1.87427 146.471 1.94521C145.765 2.01628 145.061 2.08977 144.36 2.16568L146.954 5.86736L151.208 5.47104C156.876 4.94292 162.695 4.57205 168.662 4.3637C174.628 4.15534 180.651 4.11269 186.722 4.23085L191.278 4.31955ZM122.349 9.7282L119.225 6.11009C118.571 6.24718 117.918 6.38664 117.269 6.52847C116.618 6.67047 115.97 6.81484 115.325 6.96157C104.671 9.38341 94.6996 12.4486 85.4362 16.1096C84.865 16.3354 84.2964 16.5635 83.7305 16.7938C83.1641 17.0243 82.6003 17.257 82.0394 17.4921L85.6426 20.9633L89.0688 19.6092C98.1822 16.0074 107.992 12.9918 118.474 10.6091L122.349 9.7282ZM66.4432 30.5189L62.4239 27.2545C61.9266 27.5462 61.432 27.8401 60.9403 28.1361C60.4483 28.4322 59.9592 28.7305 59.473 29.0309C51.4925 33.9611 44.2794 39.4642 37.8607 45.4893C37.4668 45.859 37.0759 46.2307 36.688 46.6044C36.3 46.9781 35.9149 47.3539 35.5329 47.7316L39.8967 50.734L42.2597 48.5159C48.5757 42.5873 55.673 37.1726 63.5249 32.3218L66.4432 30.5189ZM27.3842 65.301L22.7524 62.6102C22.4449 63.0352 22.1405 63.462 21.8392 63.8906C21.5379 64.3191 21.2397 64.7495 20.9446 65.1817C16.1201 72.2475 12.1272 79.7899 8.99341 87.7571C8.80179 88.2442 8.61339 88.733 8.42819 89.2233C8.24301 89.7135 8.06108 90.2054 7.88234 90.6988L12.703 93.0331L13.8527 90.11C16.9366 82.2696 20.866 74.8472 25.6137 67.894L27.3842 65.301ZM7.68053 111.583L2.75269 109.645C2.65471 110.174 2.56 110.704 2.4686 111.235C2.37723 111.767 2.28917 112.299 2.20436 112.833C0.822968 121.534 0.315552 130.603 0.708985 139.989C0.732956 140.561 0.760269 141.134 0.79094 141.708C0.82161 142.282 0.855561 142.857 0.892914 143.433L5.84422 144.939L5.70036 141.508C5.31325 132.272 5.81253 123.349 7.17188 114.787L7.68053 111.583ZM8.68959 166.222L3.79982 165.175C3.91931 165.772 4.04216 166.37 4.16843 166.969C4.29454 167.567 4.42407 168.167 4.55693 168.767C6.71089 178.501 9.75006 188.49 13.6996 198.686C13.9388 199.303 14.1814 199.922 14.4274 200.541C14.673 201.159 14.922 201.779 15.1744 202.399L19.9184 202.968L18.4819 199.26C14.5959 189.228 11.6057 179.4 9.4864 169.823L8.68959 166.222Z" fill="#F7C1C8"/>
</svg>
